<svg xmlns="http://www.w3.org/2000/svg" width="24" height="24" viewBox="0 0 24 24"><g fill="none" stroke="#164A73" stroke-width="1.6" stroke-linecap="round" stroke-linejoin="round"><path d="M8.5 3.8l6 3.2-6 3.2-6-3.2z" fill="#D6E4F4"/><path d="M2.5 10.2l6 3.2 6-3.2" stroke-width="1.4"/><path d="M13.5 12.5h6.2l2.3 2.3v6.2a.9.9 0 0 1-.9.9H13.5a.9.9 0 0 1-.9-.9v-7.6a.9.9 0 0 1 .9-.9z" fill="#D6E4F4" stroke-width="1.4"/><rect x="14.7" y="17.5" width="5" height="3.5" rx="0.4" fill="#FFFFFF" stroke-width="1.2"/><path d="M8.5 14v3.5h3" stroke-width="1.4"/><path d="M10.5 16.1l1.4 1.4-1.4 1.4" stroke-width="1.4"/></g></svg>
